<?xml version="1.0" encoding="utf-8"?>
<svg viewBox="238.992 175.727 5.831 12.62" xmlns="http://www.w3.org/2000/svg">
  <path d="M 243.808 182.958 L 243.808 182.101 Q 243.808 181.921 243.614 181.921 L 243.023 181.921 L 243.023 183.138 L 243.614 183.138 Q 243.808 183.138 243.808 182.958 Z M 243.808 184.909 L 243.808 184.017 Q 243.808 183.923 243.765 183.883 Q 243.722 183.844 243.614 183.844 L 243.023 183.844 L 243.023 185.089 L 243.614 185.089 Q 243.808 185.089 243.808 184.909 Z M 242.008 181.216 L 243.909 181.216 Q 244.823 181.216 244.823 182.008 L 244.823 182.814 Q 244.823 183.347 244.499 183.484 Q 244.823 183.606 244.823 184.103 L 244.823 184.996 Q 244.823 185.795 243.909 185.795 L 242.008 185.795 Z" style="fill: rgb(245, 245, 245); white-space: pre;"/>
  <path d="M 241.292 186.587 L 244.652 186.587 L 244.652 188.347 L 238.992 188.347 L 238.992 175.727 L 241.292 175.727 Z" style="fill: rgb(245, 245, 245); white-space: pre;"/>
  <path d="M 243.784 177.483 L 243.784 176.626 Q 243.784 176.446 243.59 176.446 L 242.999 176.446 L 242.999 177.663 L 243.59 177.663 Q 243.784 177.663 243.784 177.483 Z M 243.784 179.434 L 243.784 178.542 Q 243.784 178.448 243.741 178.408 Q 243.698 178.369 243.59 178.369 L 242.999 178.369 L 242.999 179.614 L 243.59 179.614 Q 243.784 179.614 243.784 179.434 Z M 241.984 175.741 L 243.885 175.741 Q 244.799 175.741 244.799 176.533 L 244.799 177.339 Q 244.799 177.872 244.475 178.009 Q 244.799 178.131 244.799 178.628 L 244.799 179.521 Q 244.799 180.32 243.885 180.32 L 241.984 180.32 Z" style="fill: rgb(245, 245, 245); white-space: pre;"/>
</svg>