<?xml version="1.0" encoding="utf-8"?>
<svg viewBox="241.469 114.896 46.958 54.104" xmlns="http://www.w3.org/2000/svg">
  <path d="M 244.747 126.631 L 248.791 126.631 L 248.791 128.952 L 241.608 128.952 L 241.608 114.896 L 244.747 114.896 Z M 249.87 114.896 L 253.009 114.896 L 253.009 128.952 L 249.87 128.952 Z M 262.49 114.896 L 262.49 117.217 L 259.905 117.217 L 259.905 128.952 L 256.744 128.952 L 256.744 117.217 L 254.181 117.217 L 254.181 114.896 Z M 271.019 114.896 L 271.019 117.217 L 268.433 117.217 L 268.433 128.952 L 265.273 128.952 L 265.273 117.217 L 262.709 117.217 L 262.709 114.896 Z M 275.264 126.631 L 279.308 126.631 L 279.308 128.952 L 272.125 128.952 L 272.125 114.896 L 275.264 114.896 Z M 283.485 126.631 L 287.994 126.631 L 287.994 128.952 L 280.325 128.952 L 280.325 114.896 L 287.817 114.896 L 287.817 117.217 L 283.485 117.217 L 283.485 120.642 L 287.176 120.642 L 287.176 122.963 L 283.485 122.963 Z" style="fill: rgb(51, 51, 51); white-space: pre;"/>
  <path d="M 252.219 141.432 L 252.219 136.315 Q 252.219 135.24 251.058 135.24 L 247.532 135.24 L 247.532 142.507 L 251.058 142.507 Q 252.219 142.507 252.219 141.432 Z M 252.219 153.085 L 252.219 147.753 Q 252.219 147.194 251.961 146.957 Q 251.703 146.721 251.058 146.721 L 247.532 146.721 L 247.532 154.16 L 251.058 154.16 Q 252.219 154.16 252.219 153.085 Z M 241.469 131.026 L 252.821 131.026 Q 258.282 131.026 258.282 135.756 L 258.282 140.572 Q 258.282 143.754 256.347 144.571 Q 258.282 145.302 258.282 148.269 L 258.282 153.601 Q 258.282 158.374 252.821 158.374 L 241.469 158.374 Z M 262.062 131.026 L 268.168 131.026 L 268.168 158.374 L 262.062 158.374 Z M 288.336 139.884 L 282.187 139.884 L 282.187 136.315 Q 282.187 135.24 281.026 135.24 L 279.263 135.24 Q 278.102 135.24 278.102 136.315 L 278.102 153.085 Q 278.102 153.687 278.36 153.923 Q 278.618 154.16 279.263 154.16 L 281.026 154.16 Q 281.671 154.16 281.929 153.923 Q 282.187 153.687 282.187 153.085 L 282.187 147.753 L 280.037 147.753 L 280.037 143.668 L 288.336 143.668 L 288.336 153.644 Q 288.336 158.374 282.918 158.374 L 277.371 158.374 Q 271.953 158.374 271.953 153.644 L 271.953 135.756 Q 271.953 131.026 277.371 131.026 L 282.918 131.026 Q 288.336 131.026 288.336 135.756 Z" style="fill: rgb(51, 51, 51); white-space: pre;"/>
  <path d="M 245.029 163.563 L 245.029 161.921 Q 245.029 161.576 244.656 161.576 L 243.525 161.576 L 243.525 163.908 L 244.656 163.908 Q 245.029 163.908 245.029 163.563 Z M 245.029 167.303 L 245.029 165.591 Q 245.029 165.412 244.946 165.336 Q 244.863 165.26 244.656 165.26 L 243.525 165.26 L 243.525 167.648 L 244.656 167.648 Q 245.029 167.648 245.029 167.303 Z M 241.579 160.223 L 245.222 160.223 Q 246.975 160.223 246.975 161.741 L 246.975 163.287 Q 246.975 164.308 246.354 164.57 Q 246.975 164.805 246.975 165.757 L 246.975 167.468 Q 246.975 169 245.222 169 L 241.579 169 Z M 250.104 165.716 L 250.104 169 L 248.145 169 L 248.145 160.223 L 251.76 160.223 Q 253.499 160.223 253.499 161.741 L 253.499 164.198 Q 253.499 165.412 252.395 165.66 L 253.941 169 L 251.829 169 L 250.449 165.716 Z M 250.104 161.672 L 250.104 164.322 L 251.167 164.322 Q 251.36 164.322 251.443 164.246 Q 251.526 164.17 251.526 163.991 L 251.526 162.017 Q 251.526 161.672 251.167 161.672 Z M 256.589 167.551 L 259.404 167.551 L 259.404 169 L 254.616 169 L 254.616 160.223 L 259.294 160.223 L 259.294 161.672 L 256.589 161.672 L 256.589 163.811 L 258.894 163.811 L 258.894 165.26 L 256.589 165.26 Z M 267.893 160.223 L 269.853 160.223 L 268.156 169 L 265.796 169 L 264.816 163.259 L 263.836 169 L 261.476 169 L 259.779 160.223 L 261.821 160.223 L 262.649 166.778 L 263.809 160.223 L 265.81 160.223 L 266.969 166.778 Z M 272.583 167.551 L 275.398 167.551 L 275.398 169 L 270.61 169 L 270.61 160.223 L 275.288 160.223 L 275.288 161.672 L 272.583 161.672 L 272.583 163.811 L 274.888 163.811 L 274.888 165.26 L 272.583 165.26 Z M 278.216 165.716 L 278.216 169 L 276.256 169 L 276.256 160.223 L 279.872 160.223 Q 281.611 160.223 281.611 161.741 L 281.611 164.198 Q 281.611 165.412 280.507 165.66 L 282.052 169 L 279.941 169 L 278.561 165.716 Z M 278.216 161.672 L 278.216 164.322 L 279.278 164.322 Q 279.472 164.322 279.554 164.246 Q 279.637 164.17 279.637 163.991 L 279.637 162.017 Q 279.637 161.672 279.278 161.672 Z M 286.315 169 L 284.342 169 L 284.342 166.157 L 282.134 160.223 L 284.149 160.223 L 285.322 164.349 L 286.412 160.223 L 288.427 160.223 L 286.315 166.171 Z" style="fill: rgb(51, 51, 51); white-space: pre;"/>
</svg>